# xmcd
#
# Track frame offsets:
#	150
#	12542
#	24560
#	36417
#	47429
#	64166
#	75177
#	88184
#	96914
#	109156
#	119986
#	130751
#	141593
#	154242
#	166763
#	178401
#	191125
#	201353
#	212016
#	223806
#
# Disc length: 3165 seconds
#
# Revision: 1
# Processed by: cddbd v1.5.2PL0 Copyright (c) Steve Scherf et al.
# Submitted via: audiograbber 1.83.01
#
DISCID=320c5b14
DTITLE=Various Artist - This is Country music CD 2
DYEAR=1900
DGENRE=Country
TTITLE0=Charlie Rich - Behind closed doors
TTITLE1=Frankie Laine - High noon
TTITLE2=Don Williams - Tulsa time
TTITLE3=Roy Drusky - I can't help it
TTITLE4=Lynn Anderson - Blue bayou
TTITLE5=Buck Owens - A bove and beyond
TTITLE6=Loretta Lynn - Let your love flow
TTITLE7=Freddy Fender - Jambalaya
TTITLE8=Johnny Cash - I walk the line
TTITLE9=Patsy Cline - I cried all the way to the alter
TTITLE10=George Jones - Once a day
TTITLE11=Stonewal Jackson - Things to think about
TTITLE12=Kenny Rogers - Reuben james
TTITLE13=Willie Nelson - The shelter of your arms
TTITLE14=Charley Pride - Louisiana man
TTITLE15=Anne Murray - All the time
TTITLE16=Billy Jo Spears - It makes no difference now
TTITLE17=Jim Reeves - Peace in the valley
TTITLE18=Tennessee Ernie Ford - Sixteen tons
TTITLE19=Bill Monroe - Blue Moon of Kentuchky
EXTD=
EXTT0=
EXTT1=
EXTT2=
EXTT3=
EXTT4=
EXTT5=
EXTT6=
EXTT7=
EXTT8=
EXTT9=
EXTT10=
EXTT11=
EXTT12=
EXTT13=
EXTT14=
EXTT15=
EXTT16=
EXTT17=
EXTT18=
EXTT19=
PLAYORDER=
